<svg xmlns="http://www.w3.org/2000/svg" xmlns:xlink="http://www.w3.org/1999/xlink" version="1.1" width="1080" height="1080" viewBox="0 0 1080 1080" xml:space="preserve">
<desc>Created with Fabric.js 5.2.4</desc>
<defs>
</defs>
<g transform="matrix(1 0 0 1 540 540)" id="b687f073-b904-4c40-b7f4-48e3b25c3e3c"  >
<rect style="stroke: none; stroke-width: 1; stroke-dasharray: none; stroke-linecap: butt; stroke-dashoffset: 0; stroke-linejoin: miter; stroke-miterlimit: 4; fill: rgb(255,255,255); fill-rule: nonzero; opacity: 1; visibility: hidden;" vector-effect="non-scaling-stroke"  x="-540" y="-540" rx="0" ry="0" width="1080" height="1080" />
</g>
<g transform="matrix(1 0 0 1 540 540)" id="84e88b36-ed68-4738-9726-eceac6df123e"  >
</g>
<g transform="matrix(0.24 0 0 0.24 540 540)"  >
<g style=""   >
		<g transform="matrix(0.1 0 0 -0.1 -177.7 -529.27)"  >
<path style="stroke: rgb(0,0,0); stroke-width: 1; stroke-dasharray: none; stroke-linecap: butt; stroke-dashoffset: 0; stroke-linejoin: miter; stroke-miterlimit: 4; fill: rgb(128,49,167); fill-rule: nonzero; opacity: 1;" vector-effect="non-scaling-stroke"  transform=" translate(-20722.97, -27792.75)" d="M 22210 37544 C 21364 37511 20726 37456 20015 37355 C 17561 37004 15470 36179 13938 34958 C 13451 34569 12933 34051 12577 33594 C 11634 32387 11102 30964 11001 29380 C 10960 28745 10992 27986 11086 27345 C 11243 26273 11572 25330 12088 24470 C 12311 24099 12602 23704 12915 23350 C 13088 23154 13477 22768 13685 22586 C 15182 21275 17291 20214 20260 19276 C 20767 19116 21261 18973 22020 18765 C 22943 18512 23575 18326 24156 18136 C 24317 18083 24454 18040 24462 18040 C 24477 18040 25529 18415 25537 18424 C 25540 18426 25528 18488 25511 18562 C 25399 19058 25375 19561 25440 20064 C 25631 21556 26616 22847 28011 23435 C 28478 23632 28939 23734 29485 23761 C 29612 23768 29716 23774 29717 23775 C 29719 23776 29727 23844 29735 23926 C 29743 24008 29752 24090 29754 24108 L 29759 24142 L 29642 24197 C 28310 24827 26832 25351 24410 26055 C 20592 27164 19385 27690 19065 28382 C 18992 28542 18965 28707 18973 28960 C 18979 29172 19004 29281 19080 29435 C 19142 29561 19204 29643 19325 29758 C 19795 30208 20730 30458 22169 30521 C 22471 30534 23317 30528 23560 30511 C 24811 30423 25846 30193 26898 29770 C 27031 29716 27140 29674 27140 29676 C 27140 29678 27107 29747 27066 29828 C 26854 30251 26717 30718 26653 31230 C 26639 31343 26635 31448 26635 31705 C 26635 31962 26639 32067 26653 32180 C 26720 32719 26864 33192 27103 33655 C 27681 34771 28729 35581 29952 35854 C 30076 35882 30364 35929 30415 35931 C 30501 35933 30482 35946 30259 36042 C 28442 36824 26394 37325 24330 37495 C 23850 37534 23644 37542 22970 37544 C 22599 37546 22257 37546 22210 37544 z" stroke-linecap="round" />
</g>
		<g transform="matrix(0.1 0 0 -0.1 806.8 -121.15)"  >
<path style="stroke: rgb(0,0,0); stroke-width: 1; stroke-dasharray: none; stroke-linecap: butt; stroke-dashoffset: 0; stroke-linejoin: miter; stroke-miterlimit: 4; fill: rgb(128,49,167); fill-rule: nonzero; opacity: 1;" vector-effect="non-scaling-stroke"  transform=" translate(-30568.03, -23711.47)" d="M 30446 23758 C 30430 23697 30431 23697 30567 23668 C 30637 23653 30695 23642 30697 23643 C 30700 23646 30465 23780 30457 23780 C 30454 23780 30450 23770 30446 23758 z" stroke-linecap="round" />
</g>
		<g transform="matrix(0.1 0 0 -0.1 207.18 817.39)"  >
<path style="stroke: rgb(0,0,0); stroke-width: 1; stroke-dasharray: none; stroke-linecap: butt; stroke-dashoffset: 0; stroke-linejoin: miter; stroke-miterlimit: 4; fill: rgb(128,49,167); fill-rule: nonzero; opacity: 1;" vector-effect="non-scaling-stroke"  transform=" translate(-24571.8, -14326.08)" d="M 33600 21104 C 33920 20323 33993 19409 33804 18575 C 33578 17577 32988 16682 32158 16078 C 30979 15218 29451 15025 28088 15561 C 27790 15679 27402 15893 27150 16081 C 27087 16127 27030 16169 27024 16173 C 27016 16178 27013 16134 27013 16012 C 27013 15898 27008 15815 26996 15750 C 26846 14908 25913 14380 24285 14216 C 23926 14180 23810 14175 23275 14175 C 22697 14175 22554 14183 22120 14235 C 21043 14366 19944 14697 18979 15180 L 18838 15251 L 18542 15145 C 18379 15086 18243 15037 18239 15035 C 18236 15032 18243 14986 18256 14931 C 18291 14784 18326 14583 18346 14420 C 18369 14239 18372 13687 18352 13515 C 18252 12659 17954 11932 17434 11280 C 17295 11106 16954 10765 16780 10626 C 16641 10515 16365 10327 16225 10248 C 15626 9909 14976 9723 14288 9694 C 14159 9688 14133 9685 14147 9675 C 14286 9579 15185 9121 15576 8947 C 17418 8131 19389 7646 21480 7496 C 21983 7459 22133 7455 22880 7455 C 23623 7455 23817 7460 24350 7495 C 27176 7682 29567 8399 31373 9603 C 32319 10234 33115 11017 33697 11890 C 34562 13189 34999 14709 35000 16420 C 35000 18245 34557 19784 33665 21059 C 33614 21131 33570 21193 33567 21197 C 33563 21200 33578 21159 33600 21104 z" stroke-linecap="round" />
</g>
		<g transform="matrix(0.1 0 0 -0.1 323.09 492.45)"  >
<path style="stroke: rgb(0,0,0); stroke-width: 1; stroke-dasharray: none; stroke-linecap: butt; stroke-dashoffset: 0; stroke-linejoin: miter; stroke-miterlimit: 4; fill: rgb(128,49,167); fill-rule: nonzero; opacity: 1;" vector-effect="non-scaling-stroke"  transform=" translate(-25730.92, -17575.52)" d="M 25638 17691 C 25568 17665 25508 17642 25506 17639 C 25503 17636 25544 17614 25598 17591 C 25651 17567 25754 17518 25825 17481 L 25956 17415 L 25874 17575 C 25828 17663 25785 17736 25778 17736 C 25771 17737 25708 17717 25638 17691 z" stroke-linecap="round" />
</g>
</g>
</g>
<g transform="matrix(2.93 0 0 2.93 711.9 609.69)" id="09dbed53-1605-42e1-9b37-f62385563d70"  >
<circle style="stroke: rgb(0,0,0); stroke-width: 0; stroke-dasharray: none; stroke-linecap: butt; stroke-dashoffset: 0; stroke-linejoin: miter; stroke-miterlimit: 4; fill: rgb(74,165,113); fill-rule: nonzero; opacity: 1;" vector-effect="non-scaling-stroke"  cx="0" cy="0" r="35" />
</g>
<g transform="matrix(2.93 0 0 2.93 345.77 745.19)" id="09dbed53-1605-42e1-9b37-f62385563d70"  >
<circle style="stroke: rgb(0,0,0); stroke-width: 0; stroke-dasharray: none; stroke-linecap: butt; stroke-dashoffset: 0; stroke-linejoin: miter; stroke-miterlimit: 4; fill: rgb(74,165,113); fill-rule: nonzero; opacity: 1;" vector-effect="non-scaling-stroke"  cx="0" cy="0" r="35" />
</g>
<g transform="matrix(2.93 0 0 2.93 739.51 318.78)" id="09dbed53-1605-42e1-9b37-f62385563d70"  >
<circle style="stroke: rgb(0,0,0); stroke-width: 0; stroke-dasharray: none; stroke-linecap: butt; stroke-dashoffset: 0; stroke-linejoin: miter; stroke-miterlimit: 4; fill: rgb(74,165,113); fill-rule: nonzero; opacity: 1;" vector-effect="non-scaling-stroke"  cx="0" cy="0" r="35" />
</g>
<g transform="matrix(NaN NaN NaN NaN 0 0)"  >
<g style=""   >
</g>
</g>
<g transform="matrix(NaN NaN NaN NaN 0 0)"  >
<g style=""   >
</g>
</g>
<g transform="matrix(NaN NaN NaN NaN 0 0)"  >
<g style=""   >
</g>
</g>
<g transform="matrix(NaN NaN NaN NaN 0 0)"  >
<g style=""   >
</g>
</g>
<g transform="matrix(NaN NaN NaN NaN 0 0)"  >
<g style=""   >
</g>
</g>
<g transform="matrix(NaN NaN NaN NaN 0 0)"  >
<g style=""   >
</g>
</g>
</svg>